<?xml version="1.0" encoding="UTF-8"?>

<svg version="1.2" baseProfile="tiny" width="215.9mm" height="127mm" viewBox="0 0 21590 12700" preserveAspectRatio="xMidYMid" fill-rule="evenodd" clip-path="url(#presentation_clip_path)" stroke-width="28.222" stroke-linejoin="round" xmlns="http://www.w3.org/2000/svg" xmlns:ooo="http://xml.openoffice.org/svg/export" xmlns:xlink="http://www.w3.org/1999/xlink" xml:space="preserve">
 <defs class="ClipPathGroup">
  <clipPath id="presentation_clip_path" clipPathUnits="userSpaceOnUse">
   <rect x="0" y="0" width="21590" height="12700"/>
  </clipPath>
 </defs>
 <defs class="TextShapeIndex"/>
 <defs class="EmbeddedBulletChars">
  <g id="bullet-char-template(57356)" transform="scale(0.00048828125,-0.00048828125)">
   <path d="M 580,1141 L 1163,571 580,0 -4,571 580,1141 Z"/>
  </g>
  <g id="bullet-char-template(57354)" transform="scale(0.00048828125,-0.00048828125)">
   <path d="M 8,1128 L 1137,1128 1137,0 8,0 8,1128 Z"/>
  </g>
  <g id="bullet-char-template(10146)" transform="scale(0.00048828125,-0.00048828125)">
   <path d="M 174,0 L 602,739 174,1481 1456,739 174,0 Z M 1358,739 L 309,1346 659,739 1358,739 Z"/>
  </g>
  <g id="bullet-char-template(10132)" transform="scale(0.00048828125,-0.00048828125)">
   <path d="M 2015,739 L 1276,0 717,0 1260,543 174,543 174,936 1260,936 717,1481 1274,1481 2015,739 Z"/>
  </g>
  <g id="bullet-char-template(10007)" transform="scale(0.00048828125,-0.00048828125)">
   <path d="M 0,-2 C -7,14 -16,27 -25,37 L 356,567 C 262,823 215,952 215,954 215,979 228,992 255,992 264,992 276,990 289,987 310,991 331,999 354,1012 L 381,999 492,748 772,1049 836,1024 860,1049 C 881,1039 901,1025 922,1006 886,937 835,863 770,784 769,783 710,716 594,584 L 774,223 C 774,196 753,168 711,139 L 727,119 C 717,90 699,76 672,76 641,76 570,178 457,381 L 164,-76 C 142,-110 111,-127 72,-127 30,-127 9,-110 8,-76 1,-67 -2,-52 -2,-32 -2,-23 -1,-13 0,-2 Z"/>
  </g>
  <g id="bullet-char-template(10004)" transform="scale(0.00048828125,-0.00048828125)">
   <path d="M 285,-33 C 182,-33 111,30 74,156 52,228 41,333 41,471 41,549 55,616 82,672 116,743 169,778 240,778 293,778 328,747 346,684 L 369,508 C 377,444 397,411 428,410 L 1163,1116 C 1174,1127 1196,1133 1229,1133 1271,1133 1292,1118 1292,1087 L 1292,965 C 1292,929 1282,901 1262,881 L 442,47 C 390,-6 338,-33 285,-33 Z"/>
  </g>
  <g id="bullet-char-template(9679)" transform="scale(0.00048828125,-0.00048828125)">
   <path d="M 813,0 C 632,0 489,54 383,161 276,268 223,411 223,592 223,773 276,916 383,1023 489,1130 632,1184 813,1184 992,1184 1136,1130 1245,1023 1353,916 1407,772 1407,592 1407,412 1353,268 1245,161 1136,54 992,0 813,0 Z"/>
  </g>
  <g id="bullet-char-template(8226)" transform="scale(0.00048828125,-0.00048828125)">
   <path d="M 346,457 C 273,457 209,483 155,535 101,586 74,649 74,723 74,796 101,859 155,911 209,963 273,989 346,989 419,989 480,963 531,910 582,859 608,796 608,723 608,648 583,586 532,535 482,483 420,457 346,457 Z"/>
  </g>
  <g id="bullet-char-template(8211)" transform="scale(0.00048828125,-0.00048828125)">
   <path d="M -4,459 L 1135,459 1135,606 -4,606 -4,459 Z"/>
  </g>
 </defs>
 <defs class="TextEmbeddedBitmaps"/>
 <g>
  <g id="id2" class="Master_Slide">
   <g id="bg-id2" class="Background"/>
   <g id="bo-id2" class="BackgroundObjects"/>
  </g>
 </g>
 <g class="SlideGroup">
  <g>
   <g id="id1" class="Slide" clip-path="url(#presentation_clip_path)">
    <g class="Page">
     <g class="com.sun.star.drawing.TableShape">
      <g>
       <path fill="rgb(255,102,0)" stroke="none" d="M 5550,3067 L 7260,3067 7260,4039 5550,4039 5550,3067 Z"/>
       <path fill="rgb(255,102,0)" stroke="none" d="M 7260,3067 L 8970,3067 8970,4039 7260,4039 7260,3067 Z"/>
       <path fill="rgb(255,102,0)" stroke="none" d="M 8970,3067 L 10680,3067 10680,4039 8970,4039 8970,3067 Z"/>
       <path fill="rgb(255,102,0)" stroke="none" d="M 10680,3067 L 12390,3067 12390,4039 10680,4039 10680,3067 Z"/>
       <path fill="rgb(255,102,0)" stroke="none" d="M 12390,3067 L 14100,3067 14100,4039 12390,4039 12390,3067 Z"/>
       <path fill="rgb(179,179,179)" stroke="none" d="M 14100,3067 L 15812,3067 15812,4039 14100,4039 14100,3067 Z"/>
       <path fill="rgb(204,204,204)" stroke="none" d="M 5550,4039 L 7260,4039 7260,5011 5550,5011 5550,4039 Z"/>
       <path fill="rgb(255,102,0)" stroke="none" d="M 7260,4039 L 8970,4039 8970,5011 7260,5011 7260,4039 Z"/>
       <path fill="rgb(255,102,0)" stroke="none" d="M 8970,4039 L 10680,4039 10680,5011 8970,5011 8970,4039 Z"/>
       <path fill="rgb(255,102,0)" stroke="none" d="M 10680,4039 L 12390,4039 12390,5011 10680,5011 10680,4039 Z"/>
       <path fill="rgb(204,204,204)" stroke="none" d="M 12390,4039 L 14100,4039 14100,5011 12390,5011 12390,4039 Z"/>
       <path fill="rgb(204,204,204)" stroke="none" d="M 14100,4039 L 15812,4039 15812,5011 14100,5011 14100,4039 Z"/>
       <path fill="rgb(230,230,230)" stroke="none" d="M 5550,5011 L 7260,5011 7260,5983 5550,5983 5550,5011 Z"/>
       <path fill="rgb(230,230,230)" stroke="none" d="M 7260,5011 L 8970,5011 8970,5983 7260,5983 7260,5011 Z"/>
       <path fill="rgb(255,102,0)" stroke="none" d="M 8970,5011 L 10680,5011 10680,5983 8970,5983 8970,5011 Z"/>
       <path fill="rgb(230,230,230)" stroke="none" d="M 10680,5011 L 12390,5011 12390,5983 10680,5983 10680,5011 Z"/>
       <path fill="rgb(230,230,230)" stroke="none" d="M 12390,5011 L 14100,5011 14100,5983 12390,5983 12390,5011 Z"/>
       <path fill="rgb(230,230,230)" stroke="none" d="M 14100,5011 L 15812,5011 15812,5983 14100,5983 14100,5011 Z"/>
       <path fill="rgb(204,204,204)" stroke="none" d="M 5550,5983 L 7260,5983 7260,6955 5550,6955 5550,5983 Z"/>
       <path fill="rgb(204,204,204)" stroke="none" d="M 7260,5983 L 8970,5983 8970,6955 7260,6955 7260,5983 Z"/>
       <path fill="rgb(204,204,204)" stroke="none" d="M 8970,5983 L 10680,5983 10680,6955 8970,6955 8970,5983 Z"/>
       <path fill="rgb(153,0,255)" stroke="none" d="M 10680,5983 L 12390,5983 12390,6955 10680,6955 10680,5983 Z"/>
       <path fill="rgb(204,204,204)" stroke="none" d="M 12390,5983 L 14100,5983 14100,6955 12390,6955 12390,5983 Z"/>
       <path fill="rgb(204,204,204)" stroke="none" d="M 14100,5983 L 15812,5983 15812,6955 14100,6955 14100,5983 Z"/>
       <path fill="rgb(230,230,230)" stroke="none" d="M 5550,6955 L 7260,6955 7260,7927 5550,7927 5550,6955 Z"/>
       <path fill="rgb(230,230,230)" stroke="none" d="M 7260,6955 L 8970,6955 8970,7927 7260,7927 7260,6955 Z"/>
       <path fill="rgb(153,0,255)" stroke="none" d="M 8970,6955 L 10680,6955 10680,7927 8970,7927 8970,6955 Z"/>
       <path fill="rgb(153,0,255)" stroke="none" d="M 10680,6955 L 12390,6955 12390,7927 10680,7927 10680,6955 Z"/>
       <path fill="rgb(153,0,255)" stroke="none" d="M 12390,6955 L 14100,6955 14100,7927 12390,7927 12390,6955 Z"/>
       <path fill="rgb(230,230,230)" stroke="none" d="M 14100,6955 L 15812,6955 15812,7927 14100,7927 14100,6955 Z"/>
       <path fill="rgb(204,204,204)" stroke="none" d="M 5550,7927 L 7260,7927 7260,8901 5550,8901 5550,7927 Z"/>
       <path fill="rgb(153,0,255)" stroke="none" d="M 7260,7927 L 8970,7927 8970,8901 7260,8901 7260,7927 Z"/>
       <path fill="rgb(153,0,255)" stroke="none" d="M 8970,7927 L 10680,7927 10680,8901 8970,8901 8970,7927 Z"/>
       <path fill="rgb(153,0,255)" stroke="none" d="M 10680,7927 L 12390,7927 12390,8901 10680,8901 10680,7927 Z"/>
       <path fill="rgb(153,0,255)" stroke="none" d="M 12390,7927 L 14100,7927 14100,8901 12390,8901 12390,7927 Z"/>
       <path fill="rgb(153,0,255)" stroke="none" d="M 14100,7927 L 15812,7927 15812,8901 14100,8901 14100,7927 Z"/>
       <path fill="none" stroke="rgb(255,255,255)" d="M 5550,3067 L 5550,4039"/>
       <path fill="none" stroke="rgb(255,255,255)" d="M 7260,3067 L 7260,4039"/>
       <path fill="none" stroke="rgb(255,255,255)" d="M 5550,3067 L 7260,3067"/>
       <path fill="none" stroke="rgb(255,255,255)" d="M 7260,3067 L 7260,4039"/>
       <path fill="none" stroke="rgb(255,255,255)" d="M 8970,3067 L 8970,4039"/>
       <path fill="none" stroke="rgb(255,255,255)" d="M 7260,3067 L 8970,3067"/>
       <path fill="none" stroke="rgb(255,255,255)" d="M 8970,3067 L 8970,4039"/>
       <path fill="none" stroke="rgb(255,255,255)" d="M 10680,3067 L 10680,4039"/>
       <path fill="none" stroke="rgb(255,255,255)" d="M 8970,3067 L 10680,3067"/>
       <path fill="none" stroke="rgb(255,255,255)" d="M 10680,3067 L 10680,4039"/>
       <path fill="none" stroke="rgb(255,255,255)" d="M 12390,3067 L 12390,4039"/>
       <path fill="none" stroke="rgb(255,255,255)" d="M 10680,3067 L 12390,3067"/>
       <path fill="none" stroke="rgb(255,255,255)" d="M 12390,3067 L 12390,4039"/>
       <path fill="none" stroke="rgb(255,255,255)" d="M 14100,3067 L 14100,4039"/>
       <path fill="none" stroke="rgb(255,255,255)" d="M 12390,3067 L 14100,3067"/>
       <path fill="none" stroke="rgb(255,255,255)" d="M 14100,3067 L 14100,4039"/>
       <path fill="none" stroke="rgb(255,255,255)" d="M 15812,3067 L 15812,4039"/>
       <path fill="none" stroke="rgb(255,255,255)" d="M 14100,3067 L 15812,3067"/>
       <path fill="none" stroke="rgb(255,255,255)" d="M 5550,4039 L 5550,5011"/>
       <path fill="none" stroke="rgb(255,255,255)" d="M 7260,4039 L 7260,5011"/>
       <path fill="none" stroke="rgb(255,255,255)" d="M 5550,4039 L 7260,4039"/>
       <path fill="none" stroke="rgb(255,255,255)" d="M 7260,4039 L 7260,5011"/>
       <path fill="none" stroke="rgb(255,255,255)" d="M 8970,4039 L 8970,5011"/>
       <path fill="none" stroke="rgb(255,255,255)" d="M 7260,4039 L 8970,4039"/>
       <path fill="none" stroke="rgb(255,255,255)" d="M 8970,4039 L 8970,5011"/>
       <path fill="none" stroke="rgb(255,255,255)" d="M 10680,4039 L 10680,5011"/>
       <path fill="none" stroke="rgb(255,255,255)" d="M 8970,4039 L 10680,4039"/>
       <path fill="none" stroke="rgb(255,255,255)" d="M 10680,4039 L 10680,5011"/>
       <path fill="none" stroke="rgb(255,255,255)" d="M 12390,4039 L 12390,5011"/>
       <path fill="none" stroke="rgb(255,255,255)" d="M 10680,4039 L 12390,4039"/>
       <path fill="none" stroke="rgb(255,255,255)" d="M 12390,4039 L 12390,5011"/>
       <path fill="none" stroke="rgb(255,255,255)" d="M 14100,4039 L 14100,5011"/>
       <path fill="none" stroke="rgb(255,255,255)" d="M 12390,4039 L 14100,4039"/>
       <path fill="none" stroke="rgb(255,255,255)" d="M 14100,4039 L 14100,5011"/>
       <path fill="none" stroke="rgb(255,255,255)" d="M 15812,4039 L 15812,5011"/>
       <path fill="none" stroke="rgb(255,255,255)" d="M 14100,4039 L 15812,4039"/>
       <path fill="none" stroke="rgb(255,255,255)" d="M 5550,5011 L 5550,5983"/>
       <path fill="none" stroke="rgb(255,255,255)" d="M 7260,5011 L 7260,5983"/>
       <path fill="none" stroke="rgb(255,255,255)" d="M 5550,5011 L 7260,5011"/>
       <path fill="none" stroke="rgb(255,255,255)" d="M 7260,5011 L 7260,5983"/>
       <path fill="none" stroke="rgb(255,255,255)" d="M 8970,5011 L 8970,5983"/>
       <path fill="none" stroke="rgb(255,255,255)" d="M 7260,5011 L 8970,5011"/>
       <path fill="none" stroke="rgb(255,255,255)" d="M 8970,5011 L 8970,5983"/>
       <path fill="none" stroke="rgb(255,255,255)" d="M 10680,5011 L 10680,5983"/>
       <path fill="none" stroke="rgb(255,255,255)" d="M 8970,5011 L 10680,5011"/>
       <path fill="none" stroke="rgb(255,255,255)" d="M 10680,5011 L 10680,5983"/>
       <path fill="none" stroke="rgb(255,255,255)" d="M 12390,5011 L 12390,5983"/>
       <path fill="none" stroke="rgb(255,255,255)" d="M 10680,5011 L 12390,5011"/>
       <path fill="none" stroke="rgb(255,255,255)" d="M 12390,5011 L 12390,5983"/>
       <path fill="none" stroke="rgb(255,255,255)" d="M 14100,5011 L 14100,5983"/>
       <path fill="none" stroke="rgb(255,255,255)" d="M 12390,5011 L 14100,5011"/>
       <path fill="none" stroke="rgb(255,255,255)" d="M 14100,5011 L 14100,5983"/>
       <path fill="none" stroke="rgb(255,255,255)" d="M 15812,5011 L 15812,5983"/>
       <path fill="none" stroke="rgb(255,255,255)" d="M 14100,5011 L 15812,5011"/>
       <path fill="none" stroke="rgb(255,255,255)" d="M 5550,5983 L 5550,6955"/>
       <path fill="none" stroke="rgb(255,255,255)" d="M 7260,5983 L 7260,6955"/>
       <path fill="none" stroke="rgb(255,255,255)" d="M 5550,5983 L 7260,5983"/>
       <path fill="none" stroke="rgb(255,255,255)" d="M 7260,5983 L 7260,6955"/>
       <path fill="none" stroke="rgb(255,255,255)" d="M 8970,5983 L 8970,6955"/>
       <path fill="none" stroke="rgb(255,255,255)" d="M 7260,5983 L 8970,5983"/>
       <path fill="none" stroke="rgb(255,255,255)" d="M 8970,5983 L 8970,6955"/>
       <path fill="none" stroke="rgb(255,255,255)" d="M 10680,5983 L 10680,6955"/>
       <path fill="none" stroke="rgb(255,255,255)" d="M 8970,5983 L 10680,5983"/>
       <path fill="none" stroke="rgb(255,255,255)" d="M 10680,5983 L 10680,6955"/>
       <path fill="none" stroke="rgb(255,255,255)" d="M 12390,5983 L 12390,6955"/>
       <path fill="none" stroke="rgb(255,255,255)" d="M 10680,5983 L 12390,5983"/>
       <path fill="none" stroke="rgb(255,255,255)" d="M 12390,5983 L 12390,6955"/>
       <path fill="none" stroke="rgb(255,255,255)" d="M 14100,5983 L 14100,6955"/>
       <path fill="none" stroke="rgb(255,255,255)" d="M 12390,5983 L 14100,5983"/>
       <path fill="none" stroke="rgb(255,255,255)" d="M 14100,5983 L 14100,6955"/>
       <path fill="none" stroke="rgb(255,255,255)" d="M 15812,5983 L 15812,6955"/>
       <path fill="none" stroke="rgb(255,255,255)" d="M 14100,5983 L 15812,5983"/>
       <path fill="none" stroke="rgb(255,255,255)" d="M 5550,6955 L 5550,7927"/>
       <path fill="none" stroke="rgb(255,255,255)" d="M 7260,6955 L 7260,7927"/>
       <path fill="none" stroke="rgb(255,255,255)" d="M 5550,6955 L 7260,6955"/>
       <path fill="none" stroke="rgb(255,255,255)" d="M 7260,6955 L 7260,7927"/>
       <path fill="none" stroke="rgb(255,255,255)" d="M 8970,6955 L 8970,7927"/>
       <path fill="none" stroke="rgb(255,255,255)" d="M 7260,6955 L 8970,6955"/>
       <path fill="none" stroke="rgb(255,255,255)" d="M 8970,6955 L 8970,7927"/>
       <path fill="none" stroke="rgb(255,255,255)" d="M 10680,6955 L 10680,7927"/>
       <path fill="none" stroke="rgb(255,255,255)" d="M 8970,6955 L 10680,6955"/>
       <path fill="none" stroke="rgb(255,255,255)" d="M 10680,6955 L 10680,7927"/>
       <path fill="none" stroke="rgb(255,255,255)" d="M 12390,6955 L 12390,7927"/>
       <path fill="none" stroke="rgb(255,255,255)" d="M 10680,6955 L 12390,6955"/>
       <path fill="none" stroke="rgb(255,255,255)" d="M 12390,6955 L 12390,7927"/>
       <path fill="none" stroke="rgb(255,255,255)" d="M 14100,6955 L 14100,7927"/>
       <path fill="none" stroke="rgb(255,255,255)" d="M 12390,6955 L 14100,6955"/>
       <path fill="none" stroke="rgb(255,255,255)" d="M 14100,6955 L 14100,7927"/>
       <path fill="none" stroke="rgb(255,255,255)" d="M 15812,6955 L 15812,7927"/>
       <path fill="none" stroke="rgb(255,255,255)" d="M 14100,6955 L 15812,6955"/>
       <path fill="none" stroke="rgb(255,255,255)" d="M 5550,7927 L 5550,8901"/>
       <path fill="none" stroke="rgb(255,255,255)" d="M 5550,8901 L 7260,8901"/>
       <path fill="none" stroke="rgb(255,255,255)" d="M 7260,7927 L 7260,8901"/>
       <path fill="none" stroke="rgb(255,255,255)" d="M 5550,7927 L 7260,7927"/>
       <path fill="none" stroke="rgb(255,255,255)" d="M 7260,7927 L 7260,8901"/>
       <path fill="none" stroke="rgb(255,255,255)" d="M 7260,8901 L 8970,8901"/>
       <path fill="none" stroke="rgb(255,255,255)" d="M 8970,7927 L 8970,8901"/>
       <path fill="none" stroke="rgb(255,255,255)" d="M 7260,7927 L 8970,7927"/>
       <path fill="none" stroke="rgb(255,255,255)" d="M 8970,7927 L 8970,8901"/>
       <path fill="none" stroke="rgb(255,255,255)" d="M 8970,8901 L 10680,8901"/>
       <path fill="none" stroke="rgb(255,255,255)" d="M 10680,7927 L 10680,8901"/>
       <path fill="none" stroke="rgb(255,255,255)" d="M 8970,7927 L 10680,7927"/>
       <path fill="none" stroke="rgb(255,255,255)" d="M 10680,7927 L 10680,8901"/>
       <path fill="none" stroke="rgb(255,255,255)" d="M 10680,8901 L 12390,8901"/>
       <path fill="none" stroke="rgb(255,255,255)" d="M 12390,7927 L 12390,8901"/>
       <path fill="none" stroke="rgb(255,255,255)" d="M 10680,7927 L 12390,7927"/>
       <path fill="none" stroke="rgb(255,255,255)" d="M 12390,7927 L 12390,8901"/>
       <path fill="none" stroke="rgb(255,255,255)" d="M 12390,8901 L 14100,8901"/>
       <path fill="none" stroke="rgb(255,255,255)" d="M 14100,7927 L 14100,8901"/>
       <path fill="none" stroke="rgb(255,255,255)" d="M 12390,7927 L 14100,7927"/>
       <path fill="none" stroke="rgb(255,255,255)" d="M 14100,7927 L 14100,8901"/>
       <path fill="none" stroke="rgb(255,255,255)" d="M 14100,8901 L 15812,8901"/>
       <path fill="none" stroke="rgb(255,255,255)" d="M 15812,7927 L 15812,8901"/>
       <path fill="none" stroke="rgb(255,255,255)" d="M 14100,7927 L 15812,7927"/>
      </g>
     </g>
    </g>
   </g>
  </g>
 </g>
</svg>