<?xml version="1.0" encoding="UTF-8" standalone="no"?>
<!DOCTYPE svg PUBLIC "-//W3C//DTD SVG 1.1//EN"
 "http://www.w3.org/Graphics/SVG/1.1/DTD/svg11.dtd">
<!-- Generated by graphviz version 2.36.0 (20140111.2315)
 -->
<!-- Title: testgraph Pages: 1 -->
<svg width="890pt" height="302pt"
 viewBox="0.00 0.00 890.00 302.00" xmlns="http://www.w3.org/2000/svg" xmlns:xlink="http://www.w3.org/1999/xlink">
<g id="graph0" class="graph" transform="scale(1 1) rotate(0) translate(4 298)">
<title>testgraph</title>
<polygon fill="white" stroke="none" points="-4,4 -4,-298 886,-298 886,4 -4,4"/>
<!-- root -->
<g id="node1" class="node"><title>root</title>
<ellipse fill="none" stroke="black" cx="567" cy="-276" rx="27" ry="18"/>
<text text-anchor="middle" x="567" y="-271.8" font-family="Times,serif" font-size="14.00">6</text>
</g>
<!-- node4 -->
<g id="node2" class="node"><title>node4</title>
<ellipse fill="none" stroke="black" cx="362" cy="-190" rx="27" ry="18"/>
<text text-anchor="middle" x="362" y="-185.8" font-family="Times,serif" font-size="14.00">4</text>
</g>
<!-- root&#45;&gt;node4 -->
<g id="edge1" class="edge"><title>root&#45;&gt;node4</title>
<path fill="none" stroke="black" d="M544.671,-265.851C508.26,-250.931 435.966,-221.308 394.069,-204.141"/>
<polygon fill="black" stroke="black" points="395.194,-200.819 384.613,-200.266 392.54,-207.296 395.194,-200.819"/>
<text text-anchor="middle" x="480.5" y="-228.8" font-family="Times,serif" font-size="14.00">2</text>
</g>
<!-- node3 -->
<g id="node3" class="node"><title>node3</title>
<ellipse fill="none" stroke="black" cx="567" cy="-190" rx="27" ry="18"/>
<text text-anchor="middle" x="567" y="-185.8" font-family="Times,serif" font-size="14.00">3</text>
</g>
<!-- root&#45;&gt;node3 -->
<g id="edge2" class="edge"><title>root&#45;&gt;node3</title>
<path fill="none" stroke="black" d="M567,-257.595C567,-246.257 567,-231.227 567,-218.315"/>
<polygon fill="black" stroke="black" points="570.5,-218.095 567,-208.095 563.5,-218.095 570.5,-218.095"/>
<text text-anchor="middle" x="570.5" y="-228.8" font-family="Times,serif" font-size="14.00">3</text>
</g>
<!-- node2 -->
<g id="node4" class="node"><title>node2</title>
<ellipse fill="none" stroke="black" cx="747" cy="-190" rx="27" ry="18"/>
<text text-anchor="middle" x="747" y="-185.8" font-family="Times,serif" font-size="14.00">2</text>
</g>
<!-- root&#45;&gt;node2 -->
<g id="edge3" class="edge"><title>root&#45;&gt;node2</title>
<path fill="none" stroke="black" d="M588.712,-264.868C620.557,-250.007 680.072,-222.233 716.356,-205.3"/>
<polygon fill="black" stroke="black" points="717.909,-208.438 725.491,-201.038 714.949,-202.095 717.909,-208.438"/>
<text text-anchor="middle" x="670.5" y="-228.8" font-family="Times,serif" font-size="14.00">4</text>
</g>
<!-- node42 -->
<g id="node5" class="node"><title>node42</title>
<ellipse fill="none" stroke="black" cx="135" cy="-104" rx="27" ry="18"/>
<text text-anchor="middle" x="135" y="-99.8" font-family="Times,serif" font-size="14.00">2</text>
</g>
<!-- node4&#45;&gt;node42 -->
<g id="edge4" class="edge"><title>node4&#45;&gt;node42</title>
<path fill="none" stroke="black" d="M338.985,-180.483C298.451,-165.484 214.226,-134.317 167.681,-117.093"/>
<polygon fill="black" stroke="black" points="168.669,-113.727 158.076,-113.539 166.24,-120.292 168.669,-113.727"/>
<text text-anchor="middle" x="266.5" y="-142.8" font-family="Times,serif" font-size="14.00">2</text>
</g>
<!-- node41 -->
<g id="node6" class="node"><title>node41</title>
<ellipse fill="none" stroke="black" cx="315" cy="-104" rx="27" ry="18"/>
<text text-anchor="middle" x="315" y="-99.8" font-family="Times,serif" font-size="14.00">1</text>
</g>
<!-- node4&#45;&gt;node41 -->
<g id="edge5" class="edge"><title>node4&#45;&gt;node41</title>
<path fill="none" stroke="black" d="M352.938,-172.804C346.176,-160.718 336.81,-143.979 329.076,-130.157"/>
<polygon fill="black" stroke="black" points="331.972,-128.164 324.034,-121.146 325.863,-131.582 331.972,-128.164"/>
<text text-anchor="middle" x="345.5" y="-142.8" font-family="Times,serif" font-size="14.00">3</text>
</g>
<!-- node40 -->
<g id="node7" class="node"><title>node40</title>
<ellipse fill="none" stroke="red" cx="387" cy="-104" rx="27" ry="18"/>
<text text-anchor="middle" x="387" y="-99.8" font-family="Times,serif" font-size="14.00">0</text>
</g>
<!-- node4&#45;&gt;node40 -->
<g id="edge6" class="edge"><title>node4&#45;&gt;node40</title>
<path fill="none" stroke="black" d="M367.059,-172.001C370.482,-160.502 375.074,-145.071 378.989,-131.916"/>
<polygon fill="black" stroke="black" points="382.45,-132.556 381.948,-121.973 375.741,-130.559 382.45,-132.556"/>
<text text-anchor="middle" x="379.5" y="-142.8" font-family="Times,serif" font-size="14.00">4</text>
</g>
<!-- node31 -->
<g id="node8" class="node"><title>node31</title>
<ellipse fill="none" stroke="black" cx="495" cy="-104" rx="27" ry="18"/>
<text text-anchor="middle" x="495" y="-99.8" font-family="Times,serif" font-size="14.00">1</text>
</g>
<!-- node3&#45;&gt;node31 -->
<g id="edge7" class="edge"><title>node3&#45;&gt;node31</title>
<path fill="none" stroke="black" d="M554.128,-173.982C543.07,-161.082 526.964,-142.291 514.353,-127.579"/>
<polygon fill="black" stroke="black" points="516.926,-125.202 507.761,-119.888 511.611,-129.758 516.926,-125.202"/>
<text text-anchor="middle" x="539.5" y="-142.8" font-family="Times,serif" font-size="14.00">2</text>
</g>
<!-- node30 -->
<g id="node9" class="node"><title>node30</title>
<ellipse fill="none" stroke="red" cx="567" cy="-104" rx="27" ry="18"/>
<text text-anchor="middle" x="567" y="-99.8" font-family="Times,serif" font-size="14.00">0</text>
</g>
<!-- node3&#45;&gt;node30 -->
<g id="edge8" class="edge"><title>node3&#45;&gt;node30</title>
<path fill="none" stroke="black" d="M567,-171.595C567,-160.257 567,-145.227 567,-132.315"/>
<polygon fill="black" stroke="black" points="570.5,-132.095 567,-122.095 563.5,-132.095 570.5,-132.095"/>
<text text-anchor="middle" x="570.5" y="-142.8" font-family="Times,serif" font-size="14.00">3</text>
</g>
<!-- node3i -->
<g id="node10" class="node"><title>node3i</title>
<ellipse fill="none" stroke="black" cx="639" cy="-104" rx="27" ry="18"/>
<text text-anchor="middle" x="639" y="-99.8" font-family="Times,serif" font-size="14.00">Inf</text>
</g>
<!-- node3&#45;&gt;node3i -->
<g id="edge9" class="edge"><title>node3&#45;&gt;node3i</title>
<path fill="none" stroke="black" d="M579.872,-173.982C590.93,-161.082 607.036,-142.291 619.647,-127.579"/>
<polygon fill="black" stroke="black" points="622.389,-129.758 626.239,-119.888 617.074,-125.202 622.389,-129.758"/>
<text text-anchor="middle" x="611.5" y="-142.8" font-family="Times,serif" font-size="14.00">4</text>
</g>
<!-- node20 -->
<g id="node11" class="node"><title>node20</title>
<ellipse fill="none" stroke="red" cx="711" cy="-104" rx="27" ry="18"/>
<text text-anchor="middle" x="711" y="-99.8" font-family="Times,serif" font-size="14.00">0</text>
</g>
<!-- node2&#45;&gt;node20 -->
<g id="edge10" class="edge"><title>node2&#45;&gt;node20</title>
<path fill="none" stroke="black" d="M739.888,-172.404C734.809,-160.554 727.878,-144.382 722.078,-130.849"/>
<polygon fill="black" stroke="black" points="725.254,-129.374 718.098,-121.561 718.82,-132.131 725.254,-129.374"/>
<text text-anchor="middle" x="734.5" y="-142.8" font-family="Times,serif" font-size="14.00">2</text>
</g>
<!-- node2i -->
<g id="node12" class="node"><title>node2i</title>
<ellipse fill="none" stroke="black" cx="783" cy="-104" rx="27" ry="18"/>
<text text-anchor="middle" x="783" y="-99.8" font-family="Times,serif" font-size="14.00">Inf</text>
</g>
<!-- node2&#45;&gt;node2i -->
<g id="edge11" class="edge"><title>node2&#45;&gt;node2i</title>
<path fill="none" stroke="black" d="M754.112,-172.404C759.191,-160.554 766.122,-144.382 771.922,-130.849"/>
<polygon fill="black" stroke="black" points="775.18,-132.131 775.902,-121.561 768.746,-129.374 775.18,-132.131"/>
<text text-anchor="middle" x="770.5" y="-142.8" font-family="Times,serif" font-size="14.00">3</text>
</g>
<!-- node2iii -->
<g id="node13" class="node"><title>node2iii</title>
<ellipse fill="none" stroke="black" cx="855" cy="-104" rx="27" ry="18"/>
<text text-anchor="middle" x="855" y="-99.8" font-family="Times,serif" font-size="14.00">Inf</text>
</g>
<!-- node2&#45;&gt;node2iii -->
<g id="edge12" class="edge"><title>node2&#45;&gt;node2iii</title>
<path fill="none" stroke="black" d="M763.875,-175.875C781.603,-162.086 809.679,-140.25 829.984,-124.457"/>
<polygon fill="black" stroke="black" points="832.142,-127.212 837.887,-118.31 827.845,-121.687 832.142,-127.212"/>
<text text-anchor="middle" x="810.5" y="-142.8" font-family="Times,serif" font-size="14.00">4</text>
</g>
<!-- node220 -->
<g id="node14" class="node"><title>node220</title>
<ellipse fill="none" stroke="red" cx="27" cy="-18" rx="27" ry="18"/>
<text text-anchor="middle" x="27" y="-13.8" font-family="Times,serif" font-size="14.00">0</text>
</g>
<!-- node42&#45;&gt;node220 -->
<g id="edge13" class="edge"><title>node42&#45;&gt;node220</title>
<path fill="none" stroke="black" d="M118.125,-89.875C100.397,-76.0863 72.3212,-54.2498 52.0159,-38.4568"/>
<polygon fill="black" stroke="black" points="54.1553,-35.6868 44.1129,-32.31 49.8577,-41.2122 54.1553,-35.6868"/>
<text text-anchor="middle" x="91.5" y="-56.8" font-family="Times,serif" font-size="14.00">2</text>
</g>
<!-- node2iiii -->
<g id="node15" class="node"><title>node2iiii</title>
<ellipse fill="none" stroke="black" cx="99" cy="-18" rx="27" ry="18"/>
<text text-anchor="middle" x="99" y="-13.8" font-family="Times,serif" font-size="14.00">Inf</text>
</g>
<!-- node42&#45;&gt;node2iiii -->
<g id="edge14" class="edge"><title>node42&#45;&gt;node2iiii</title>
<path fill="none" stroke="black" d="M127.888,-86.4043C122.809,-74.5542 115.878,-58.3822 110.078,-44.8493"/>
<polygon fill="black" stroke="black" points="113.254,-43.3739 106.098,-35.5612 106.82,-46.1314 113.254,-43.3739"/>
<text text-anchor="middle" x="123.5" y="-56.8" font-family="Times,serif" font-size="14.00">3</text>
</g>
<!-- node2iiiii -->
<g id="node16" class="node"><title>node2iiiii</title>
<ellipse fill="none" stroke="black" cx="171" cy="-18" rx="27" ry="18"/>
<text text-anchor="middle" x="171" y="-13.8" font-family="Times,serif" font-size="14.00">Inf</text>
</g>
<!-- node42&#45;&gt;node2iiiii -->
<g id="edge15" class="edge"><title>node42&#45;&gt;node2iiiii</title>
<path fill="none" stroke="black" d="M142.112,-86.4043C147.191,-74.5542 154.122,-58.3822 159.922,-44.8493"/>
<polygon fill="black" stroke="black" points="163.18,-46.1314 163.902,-35.5612 156.746,-43.3739 163.18,-46.1314"/>
<text text-anchor="middle" x="159.5" y="-56.8" font-family="Times,serif" font-size="14.00">4</text>
</g>
<!-- node12 -->
<g id="node17" class="node"><title>node12</title>
<ellipse fill="none" stroke="black" cx="243" cy="-18" rx="27" ry="18"/>
<text text-anchor="middle" x="243" y="-13.8" font-family="Times,serif" font-size="14.00">Inf</text>
</g>
<!-- node41&#45;&gt;node12 -->
<g id="edge16" class="edge"><title>node41&#45;&gt;node12</title>
<path fill="none" stroke="black" d="M302.128,-87.9825C291.07,-75.0819 274.964,-56.2914 262.353,-41.5785"/>
<polygon fill="black" stroke="black" points="264.926,-39.2023 255.761,-33.8875 259.611,-43.7579 264.926,-39.2023"/>
<text text-anchor="middle" x="287.5" y="-56.8" font-family="Times,serif" font-size="14.00">2</text>
</g>
<!-- node12inf -->
<g id="node18" class="node"><title>node12inf</title>
<ellipse fill="none" stroke="black" cx="315" cy="-18" rx="27" ry="18"/>
<text text-anchor="middle" x="315" y="-13.8" font-family="Times,serif" font-size="14.00">Inf</text>
</g>
<!-- node41&#45;&gt;node12inf -->
<g id="edge17" class="edge"><title>node41&#45;&gt;node12inf</title>
<path fill="none" stroke="black" d="M315,-85.5951C315,-74.2572 315,-59.2271 315,-46.3153"/>
<polygon fill="black" stroke="black" points="318.5,-46.0951 315,-36.0952 311.5,-46.0952 318.5,-46.0951"/>
<text text-anchor="middle" x="318.5" y="-56.8" font-family="Times,serif" font-size="14.00">3</text>
</g>
<!-- node12infi -->
<g id="node19" class="node"><title>node12infi</title>
<ellipse fill="none" stroke="black" cx="387" cy="-18" rx="27" ry="18"/>
<text text-anchor="middle" x="387" y="-13.8" font-family="Times,serif" font-size="14.00">Inf</text>
</g>
<!-- node41&#45;&gt;node12infi -->
<g id="edge18" class="edge"><title>node41&#45;&gt;node12infi</title>
<path fill="none" stroke="black" d="M327.872,-87.9825C338.93,-75.0819 355.036,-56.2914 367.647,-41.5785"/>
<polygon fill="black" stroke="black" points="370.389,-43.7579 374.239,-33.8875 365.074,-39.2023 370.389,-43.7579"/>
<text text-anchor="middle" x="359.5" y="-56.8" font-family="Times,serif" font-size="14.00">4</text>
</g>
<!-- node11inf0 -->
<g id="node20" class="node"><title>node11inf0</title>
<ellipse fill="none" stroke="black" cx="459" cy="-18" rx="27" ry="18"/>
<text text-anchor="middle" x="459" y="-13.8" font-family="Times,serif" font-size="14.00">Inf</text>
</g>
<!-- node31&#45;&gt;node11inf0 -->
<g id="edge19" class="edge"><title>node31&#45;&gt;node11inf0</title>
<path fill="none" stroke="black" d="M487.888,-86.4043C482.809,-74.5542 475.878,-58.3822 470.078,-44.8493"/>
<polygon fill="black" stroke="black" points="473.254,-43.3739 466.098,-35.5612 466.82,-46.1314 473.254,-43.3739"/>
<text text-anchor="middle" x="483.5" y="-56.8" font-family="Times,serif" font-size="14.00">2</text>
</g>
<!-- node11inf1 -->
<g id="node21" class="node"><title>node11inf1</title>
<ellipse fill="none" stroke="black" cx="531" cy="-18" rx="27" ry="18"/>
<text text-anchor="middle" x="531" y="-13.8" font-family="Times,serif" font-size="14.00">Inf</text>
</g>
<!-- node31&#45;&gt;node11inf1 -->
<g id="edge20" class="edge"><title>node31&#45;&gt;node11inf1</title>
<path fill="none" stroke="black" d="M502.112,-86.4043C507.191,-74.5542 514.122,-58.3822 519.922,-44.8493"/>
<polygon fill="black" stroke="black" points="523.18,-46.1314 523.902,-35.5612 516.746,-43.3739 523.18,-46.1314"/>
<text text-anchor="middle" x="519.5" y="-56.8" font-family="Times,serif" font-size="14.00">3</text>
</g>
<!-- node11inf2 -->
<g id="node22" class="node"><title>node11inf2</title>
<ellipse fill="none" stroke="black" cx="603" cy="-18" rx="27" ry="18"/>
<text text-anchor="middle" x="603" y="-13.8" font-family="Times,serif" font-size="14.00">Inf</text>
</g>
<!-- node31&#45;&gt;node11inf2 -->
<g id="edge21" class="edge"><title>node31&#45;&gt;node11inf2</title>
<path fill="none" stroke="black" d="M511.875,-89.875C529.603,-76.0863 557.679,-54.2498 577.984,-38.4568"/>
<polygon fill="black" stroke="black" points="580.142,-41.2122 585.887,-32.31 575.845,-35.6868 580.142,-41.2122"/>
<text text-anchor="middle" x="559.5" y="-56.8" font-family="Times,serif" font-size="14.00">4</text>
</g>
</g>
</svg>
